# xmcd
#
# Track frame offsets:
#	150
#	10727
#	23145
#	34672
#	41764
#	50837
#	60064
#	70422
#	80382
#	92440
#	104802
#	114387
#	130972
#	140325
#
# Disc length: 2031 seconds
#
# Revision: 1
# Processed by: cddbd v1.5.2PL0 Copyright (c) Steve Scherf et al.
# Submitted via: audiograbber 1.83.01
#
DISCID=b607ed0e
DTITLE=Arakajun - Arakajun
DYEAR=1998
DGENRE=Pop-Folk
TTITLE0=Arakajun
TTITLE1=Kajunen Bihotza
TTITLE2=Sagardotegira
TTITLE3=La La La
TTITLE4=Gona Motz Hoiekin
TTITLE5=Blue Moon
TTITLE6=Begi Urdinak
TTITLE7=Sitting On The Top...
TTITLE8=Lotsarik Ez Duzu
TTITLE9=Epa Joe
TTITLE10=Utzi Hidan
TTITLE11=Esan Ba Zergaitik Zuri
TTITLE12=Instrumentala
TTITLE13=John Henry
EXTD=
EXTT0=
EXTT1=
EXTT2=
EXTT3=
EXTT4=
EXTT5=
EXTT6=
EXTT7=
EXTT8=
EXTT9=
EXTT10=
EXTT11=
EXTT12=
EXTT13=
PLAYORDER=
